<svg width="37" height="37" viewBox="0 0 37 37" fill="none" xmlns="http://www.w3.org/2000/svg">
<path fill-rule="evenodd" clip-rule="evenodd" d="M2.16309 18.5C2.16309 14.1672 3.88427 10.0119 6.94801 6.94819C10.0117 3.88446 14.167 2.16327 18.4998 2.16327C22.8326 2.16327 26.9879 3.88446 30.0516 6.94819C33.1154 10.0119 34.8366 14.1672 34.8366 18.5C34.8366 22.8328 33.1154 26.9881 30.0516 30.0518C26.9879 33.1156 22.8326 34.8367 18.4998 34.8367C14.167 34.8367 10.0117 33.1156 6.94801 30.0518C3.88427 26.9881 2.16309 22.8328 2.16309 18.5V18.5ZM18.4998 4.5066C14.7885 4.5066 11.2293 5.9809 8.60499 8.60518C5.98072 11.2294 4.50642 14.7887 4.50642 18.5C4.50642 22.2113 5.98072 25.7706 8.60499 28.3948C11.2293 31.0191 14.7885 32.4934 18.4998 32.4934C22.2111 32.4934 25.7704 31.0191 28.3946 28.3948C31.0189 25.7706 32.4932 22.2113 32.4932 18.5C32.4932 14.7887 31.0189 11.2294 28.3946 8.60518C25.7704 5.9809 22.2111 4.5066 18.4998 4.5066V4.5066ZM24.3064 12.6959C24.5376 12.9272 24.6675 13.2409 24.6675 13.5679C24.6675 13.8949 24.5376 14.2086 24.3064 14.4399L20.2438 18.5L24.3064 22.5601C24.5379 22.7917 24.668 23.1058 24.668 23.4333C24.668 23.7609 24.5379 24.075 24.3064 24.3065C24.0748 24.5381 23.7607 24.6682 23.4332 24.6682C23.1056 24.6682 22.7915 24.5381 22.56 24.3065L18.4998 20.2439L14.4397 24.3065C14.325 24.4212 14.1889 24.5122 14.0391 24.5742C13.8892 24.6363 13.7287 24.6682 13.5665 24.6682C13.4043 24.6682 13.2437 24.6363 13.0939 24.5742C12.9441 24.5122 12.808 24.4212 12.6933 24.3065C12.5786 24.1919 12.4877 24.0557 12.4256 23.9059C12.3635 23.7561 12.3316 23.5955 12.3316 23.4333C12.3316 23.2712 12.3635 23.1106 12.4256 22.9608C12.4877 22.8109 12.5786 22.6748 12.6933 22.5601L16.7559 18.5L12.6933 14.4399C12.4617 14.2083 12.3316 13.8942 12.3316 13.5667C12.3316 13.2392 12.4617 12.9251 12.6933 12.6935C12.9249 12.4619 13.239 12.3318 13.5665 12.3318C13.894 12.3318 14.2081 12.4619 14.4397 12.6935L18.4998 16.7561L22.56 12.6935C22.6745 12.5786 22.8106 12.4875 22.9605 12.4253C23.1103 12.3631 23.2709 12.3311 23.4332 12.3311C23.5954 12.3311 23.756 12.3631 23.9059 12.4253C24.0557 12.4875 24.1918 12.5786 24.3064 12.6935V12.6959Z" fill="white"/>
</svg>
