<svg width="43" height="43" viewBox="0 0 43 43" fill="none" xmlns="http://www.w3.org/2000/svg">
<path d="M39.4167 10.7411C39.4167 9.75563 38.6177 8.95834 37.634 8.95834H23.2828C22.81 8.95834 22.3565 9.14616 22.0222 9.48049C21.6879 9.81481 21.5001 10.2682 21.5001 10.7411C21.5001 11.2139 21.6879 11.6673 22.0222 12.0016C22.3565 12.3359 22.81 12.5238 23.2828 12.5238H37.634C38.1068 12.5238 38.5603 12.3359 38.8946 12.0016C39.2289 11.6673 39.4167 11.2139 39.4167 10.7411V10.7411ZM39.4167 21.5C39.4167 20.5146 38.6177 19.7173 37.634 19.7173H5.36613C4.89332 19.7173 4.43988 19.9051 4.10556 20.2394C3.77124 20.5738 3.58342 21.0272 3.58342 21.5C3.58342 21.9728 3.77124 22.4263 4.10556 22.7606C4.43988 23.0949 4.89332 23.2827 5.36613 23.2827H37.634C38.1068 23.2827 38.5603 23.0949 38.8946 22.7606C39.2289 22.4263 39.4167 21.9728 39.4167 21.5V21.5ZM37.634 30.4763C38.1068 30.4763 38.5603 30.6641 38.8946 30.9984C39.2289 31.3327 39.4167 31.7862 39.4167 32.259C39.4167 32.7318 39.2289 33.1852 38.8946 33.5195C38.5603 33.8539 38.1068 34.0417 37.634 34.0417H16.1161C15.6433 34.0417 15.1899 33.8539 14.8556 33.5195C14.5212 33.1852 14.3334 32.7318 14.3334 32.259C14.3334 31.7862 14.5212 31.3327 14.8556 30.9984C15.1899 30.6641 15.6433 30.4763 16.1161 30.4763H37.634Z" fill="white"/>
</svg>
